<svg xmlns="http://www.w3.org/2000/svg" viewBox="0 0 937.18 874.26"><path d="M509.09,59.59A50.21,50.21,0,1,1,562,100.29a42.86,42.86,0,0,1-5.18.09,5.51,5.51,0,0,0-2.76,1.28c-2.84,4.44,7.24,3.61.39,23a15.28,15.28,0,0,1-.81,4.25c-.54,7.45-3.4,29.5-3.81,41.25,1.45,1.7,1.86,2.53,1.7,6.66-.65,5.58-1.93,19.25-4,28-1.75,7.51-4.82,8.95-7.29,10.79-3.47,15.55-4.39,28.44-13.31,47.34-.8,14.32-1.81,18.22-4.81,25.21-.34,21.09,1.12,24.23-13.11,57.63-3.68,15.62-.18,26.42,3.69,42.65,4,16.68,15,23.65,16.61,40.73,3.86,40.23,2.89,67.61-5.74,99.15l7.54,17.84c9.34,4.29,32.54,16,19.68,34.57,18.11,9.52,45.47,19.63,68,38.94,9.08,7.56,18.67,15.8,27.28,25.48,16.39,2.55,14.64,3.85,26.78,11.31,35.71,21.9,93,65.33,126.17,96.08,5.72,3.34,8.05,5.75,12.67,8.17.72,1.38.92,1.7.76,2.08-1.59,4-1.53,4.13-3,7.33,1.79,2,5.13,3.83,7.12,5.56,1.87.58,1.87-.31,5.07-1.1,4.17,3.9,9.33,7,11.18,6.86,5.65-1.43,4.69-.26,9.46-5.6,1.72-1.77,4.6,0,4.6,0a44.75,44.75,0,0,1,10.78-9.33c4.1-2.42,11.93-2.69,11.93-2.69,2.62,0,2.13,2.71,1.9,3.59-3,1.53-9.23,3.21-12.75,5.8-7.67,7.93-13.68,18.63-13.68,18.63,15.44-2.11,24.93,1.72,37.8.25,7-.41,12.19,0,19.56-5.29a84.33,84.33,0,0,1,13.43-7.71c6.16-2.69,12-1.26,17.43,2.68,3.83,4.32,6.14,4.35.32,10.45-2.11,2.37-5.16,5-9,8.85-6.82,6.74-16,15.71-25.49,23.14s-20.53,14.25-27.34,17.34c-17.19,12.35-13.13,9.12-26.65,21.37-1.71,1.52-6.23,4.25-8.43,5.71-5.33,3.5-7,.58-10.47-5.83a84.9,84.9,0,0,1-4.21-7.51c-2.87-5.58-5-12-4.15-11.85-3.2-.41-17.62-17.31-17.65-20.93-3.05-.7-16.05-13.29-16.52-15.7l-11.52-9.23c-13.18,2.74-16.2-5.45-51-30.15-4-.07-10.11-2.21-18.9-8.73-15.7-12.58-53.39-41.05-59.78-44.3-6.86-3.5-15-6.79-20.08-10.94-7.54-1.38-11.66-2.17-15.42-3.22a95,95,0,0,0-17.1-3.73c-15.87-2-32.33-8.54-48-16.38-7.42-3.51-13.88-5.3-20.26-8-14.32-6.05-26.61-11.5-36.12-13.69-3.63-.36-20.89-5.54-29.95-10.82-3.14-1.62-4.95-3.17-7-3.64-4.76-1.09-7.81.78-9.95,1.51-11.61,6-22.48,11.27-32.53,16.68-9.35,5-17.95,10.19-27.07,15.44-8.23,4.75-17.74,9.23-27.51,13.9,0,0-27.86,14-43.08,19.39-13.2,10.78-40.19,29.42-56.66,38.66-8.16,3.88-24,13.92-31.31,16.16-4.17,3.36-19,14-30.66,22.7-9,6.73-15.78,12.4-15.78,12.4-5.22,4.68-4.87,6.9-14.8,2.69-2.75,2.26-4.88,3.67-6.65,5-7.17,5.2-7.78,3.95-10.4,3.81-5,4.33-5.63,2.09-10,7.07-2.87,4.44.07,3.38-6,5.54-1.27.49-1.88,2-2.86,2.89-4.87,4-4.89,15.33-16.54,16.14-6.75,4.81-5,10.63-10.18,10.37.32,5-9.12,12.29-10.82,12.26-14.87,5.13-15.9-5.8-33.74,2.36-2.31,1.06-5.69,4-10.15,4.82-7.85,1.48-17.33-.07-23.11-4.55-9.1-7-17.48-20.56-17.48-20.56C-1.6,841.77.08,837.45,9.12,831c3.76-2.4,4.46-4.19,10.78-4.62,3.14-1.19,2.28.63,7.89-1.38,3.25-1.17,3.25-.34,9.79-.9,1.5-1,3.61-1.37,6.44-2.29,5.17-1.7,10.22-3.6,10.22-3.6s1.32-1.33,6.3-.86c4.21-1.72,8.54-4.28,10.76-5.07-.57-6.67.15-6.36,3.24-9,3.86-3.32,4.55-2.78,7.42-.72,1.21-.7,1.8-.94,1.66-2-.47-3.48-3.45-5.11-2.55-12.77-1.32-3.07-3.27-6.86-2.85-9.15.63-2.47,1.24-3.66,2.74-4.44s2.11.29,3,1.25c1.52,1.77,2.75,7,2.75,7,.54,5.92,2.38,13.59,8.23,9.26,3.45-3.5,4.12-12.82,11.16-10.82l5,4.36c4.26-4,4.46-4,7-5.62,0,0-4-4-.5-7.17,2.4-2.13,5.29-3.66,10.43-9.35,14.09-15.58,21.33-22.46,36.58-35,30.41-25,65-42.56,87-51.28,7.17-9.1,14.14-15.15,30.06-16.68,18.91-31.94,55.13-60.47,63.45-65,6.77-12.26,9.71-11,18.56-13.42,7-5.62,8.6-5.62,11.74-11.5,3.05-12.12-7-44.51,18.72-46.15a123.72,123.72,0,0,1,10.2-13.18,110.38,110.38,0,0,1-7-26c-.2-.85-10.22-7.91-7.38-17.13-4.25-5.06-12.21-16.88-14.7-22.42a20.56,20.56,0,0,1-3.34-.58c-1.3-.2-2.91-.13-4.73-.28-4,10.34-8.38,11.11-15.51,13.4-12.73,27.13-17.21,38.61-53.23,61a90.66,90.66,0,0,0-18.81,33.59c-2.46,5.28-1.59,12.68-.29,16.65-1.88,5.87-1.39,6.46-1.39,6.46.79,2.21,2.83,5.15,5.34,5.78,4.32,1.14,8.65,1,8.4,5.77-.58,6-8.49,5-12.24,4.37-14.41-2.28-9.86-11.68-19.08-8.54-7.06,4.62-9.7,18.25-21.22,16.48-1.53-1-1.06-4,0-6.14,1.62-3.36,4.49-6.14,2.78-7.4q-11.26,3.6-22.5,7.33c-7.06,1.93-14.8-1.59-7.85-6.24a66.36,66.36,0,0,0,13.54-6.47s2.94-4-2.69-2c-6.14,2.2-15.2,3.57-21.69,2.85,0,0-13.48-1.77-15.2-2.83s-3.34-5.22.87-5.19c5.34,0,18.7-1.53,29.05-4.29,5-1.95,14.51-7.57,19.84-10.22,0,0,5.78-8.42,9-10.08,5.31-6.12,9.79-9.73,14.49-16,4.6-9.48,9.35-24.49,24.57-47.74,7-10.71,15.78-23.19,26.79-34.35,0,0,2.84-17.87,17.17-30.58A232.55,232.55,0,0,1,340,395.78c1.84-3.11,3.59-5.82,5.34-8.78,4.44-7,9.1-19.95,26.4-22,0,0,7.4-5.47,10.24-9.35,4.44-3.79,3.43-9.68,7-13.84-5.51-5.37-19.61-15.48-21-29.54A43.86,43.86,0,0,1,380.92,276c10-10,20.53-15,33.33-14.23,16,2.37,19,7.66,24.09,12.91,4.88,5,6.7,1.77,8.76,7.6,13.41,3.56,12.67,2,12.55,11.86,2.06,2.77,5.52,5.35,5.47,11.11,4.51-9.35,5.4-11.07,17.44-21.36,2.85-8.36,4.78-16.58,7.28-24.94,2.35-7.73,5.26-15.69,7.52-21.68-2.39-16.9,2.53-19.7,9.1-34.51-1.16-2-.91-2.62-.42-6,2.55-9.79,6.55-22.75,8.92-31.2a4.83,4.83,0,0,1,4.26-3.61c3-10.69,7.51-30.59,8.27-34.65,3.09-11.18,1.1-14.77-1.28-21.07-.76-2.06-.4-5-1.72-7.29-3.74-6.52-7.77-15-10.51-21-1.77-3.86-4.57-18.39-4.57-18.39-2.41-7.41-.32,0-.32,0"/></svg>